# xmcd
#
# Track frame offsets:
#	150
#	13098
#	23197
#	31543
#	44136
#	57176
#	67395
#	78047
#	88025
#	100693
#	112844
#	126423
#	136295
#	146435
#	158687
#	172060
#	184988
#	198018
#	212390
#	224564
#	237626
#	250887
#	260949
#	273969
#	284109
#	298207
#	309198
#	319781
#
# Disc length: 4409 seconds
#
# Revision: 0
# Processed by: cddbd v1.4PL0 Copyright (c) Steve Scherf et al.
# Submitted via: EasyCDDAExtractor 4.6.0.1
#
DISCID=aa11371c
DTITLE=Various Artist - A Million Dollars Worth Of Doo-Wop  Vol 19
DYEAR=1900
DGENRE=Blues
TTITLE0=Metronomes - My Dearest Darling
TTITLE1=Dwellers - What's That Feeling Called Love
TTITLE2=Dwellers - Oh Sweetie
TTITLE3=Tangiers - The Plea
TTITLE4=Premiers (John McKinney and the) - Angels In The Sky
TTITLE5=Premiers (John McKinney and the) - Oh How I Love You
TTITLE6=Limeliters - Magic Touch
TTITLE7=Limeliters - Long Tall Sally
TTITLE8=Hepsters - I Had To Let You Go
TTITLE9=Emeralds - Lover's Cry
TTITLE10=Emeralds - Rumblin' Tumblin' Baby
TTITLE11=Eldorays - Nights Of Ecstasy
TTITLE12=Montclairs (Mel Williams and the) - O O Wah
TTITLE13=Montclairs (Mel Williams and the) - Lessons In Love
TTITLE14=Troopers - My Resolution
TTITLE15=Troopers - Get Out
TTITLE16=Five C's - Tell Me
TTITLE17=Five C's - Whoo-Whee Baby
TTITLE18=Danderliers - May God Be With You
TTITLE19=Danderliers - Little Man
TTITLE20=Belvederes - We Two
TTITLE21=Belvederes - Pepper Hot Baby
TTITLE22=Juniors (Jimmy Castro and the) - Somebody Mentioned Your Name
TTITLE23=Juniors (Jimmy Castro and the) - This Girl Of Mine
TTITLE24=Enchanters - Know It All
TTITLE25=Enchanters - Spellbound By The Moon
TTITLE26=Mondellos (Alice Jean and the) - That's What I Call Love
TTITLE27=Mondellos (Alice Jean and the) - Daylight Savings Time
EXTD=
EXTT0=
EXTT1=
EXTT2=
EXTT3=
EXTT4=
EXTT5=
EXTT6=
EXTT7=
EXTT8=
EXTT9=
EXTT10=
EXTT11=
EXTT12=
EXTT13=
EXTT14=
EXTT15=
EXTT16=
EXTT17=
EXTT18=
EXTT19=
EXTT20=
EXTT21=
EXTT22=
EXTT23=
EXTT24=
EXTT25=
EXTT26=
EXTT27=
PLAYORDER=
